<svg width="1024" height="1024" viewBox="0 0 1024 1024" fill="none" xmlns="http://www.w3.org/2000/svg">
<path fill-rule="evenodd" clip-rule="evenodd" d="M17.9731 496.5C17.8072 501.646 17.7236 506.813 17.7236 512C17.7236 772.955 229.269 984.5 490.224 984.5C751.179 984.5 962.724 772.955 962.724 512C962.724 506.813 962.64 501.646 962.475 496.5H17.9731Z" fill="#3F3F3F"/>
<path fill-rule="evenodd" clip-rule="evenodd" d="M17.7236 512C17.7236 251.046 229.269 39.5 490.224 39.5C751.178 39.5 962.724 251.046 962.724 512C962.724 772.955 751.179 984.5 490.224 984.5C229.269 984.5 17.7236 772.955 17.7236 512ZM490.224 54.5C237.554 54.5 32.7236 259.33 32.7236 512C32.7236 764.67 237.554 969.5 490.224 969.5C742.893 969.5 947.724 764.67 947.724 512C947.724 259.33 742.893 54.5 490.224 54.5Z" fill="#3F3F3F"/>
<g filter="url(#filter0_d)">
<path d="M365.764 737.5L325.814 631.08H325.134C325.474 634.593 325.757 639.353 325.984 645.36C326.21 651.253 326.324 657.43 326.324 663.89V737.5H312.214V616.12H334.824L372.224 715.57H372.904L410.984 616.12H433.424V737.5H418.294V662.87C418.294 656.976 418.407 651.14 418.634 645.36C418.974 639.58 419.257 634.876 419.484 631.25H418.804L378.344 737.5H365.764Z" fill="white"/>
<path d="M558.752 694.66C558.752 703.046 557.052 710.64 553.652 717.44C550.252 724.126 545.039 729.453 538.012 733.42C531.099 737.273 522.259 739.2 511.492 739.2C496.419 739.2 484.915 735.12 476.982 726.96C469.162 718.686 465.252 707.806 465.252 694.32V616.12H480.552V694.83C480.552 704.69 483.159 712.34 488.372 717.78C493.699 723.22 501.689 725.94 512.342 725.94C523.335 725.94 531.269 723.05 536.142 717.27C541.129 711.376 543.622 703.84 543.622 694.66V616.12H558.752V694.66Z" fill="white"/>
<path d="M659.638 705.03C659.638 715.796 655.728 724.183 647.908 730.19C640.088 736.196 629.548 739.2 616.288 739.2C609.488 739.2 603.198 738.69 597.418 737.67C591.638 736.65 586.821 735.233 582.968 733.42V718.8C587.048 720.613 592.091 722.256 598.098 723.73C604.218 725.203 610.508 725.94 616.968 725.94C626.035 725.94 632.835 724.183 637.368 720.67C642.015 717.156 644.338 712.396 644.338 706.39C644.338 702.423 643.488 699.08 641.788 696.36C640.088 693.64 637.141 691.146 632.948 688.88C628.868 686.5 623.144 684.006 615.778 681.4C605.464 677.66 597.645 673.07 592.318 667.63C587.105 662.19 584.498 654.766 584.498 645.36C584.498 638.9 586.141 633.403 589.428 628.87C592.715 624.223 597.248 620.653 603.028 618.16C608.921 615.666 615.665 614.42 623.258 614.42C629.945 614.42 636.065 615.043 641.618 616.29C647.171 617.536 652.215 619.18 656.748 621.22L651.988 634.31C647.795 632.496 643.205 630.966 638.218 629.72C633.344 628.473 628.245 627.85 622.918 627.85C615.325 627.85 609.601 629.493 605.748 632.78C601.895 635.953 599.968 640.203 599.968 645.53C599.968 649.61 600.818 653.01 602.518 655.73C604.218 658.45 606.995 660.886 610.848 663.04C614.701 665.193 619.915 667.516 626.488 670.01C633.628 672.616 639.635 675.45 644.508 678.51C649.495 681.456 653.235 685.026 655.728 689.22C658.335 693.413 659.638 698.683 659.638 705.03Z" fill="white"/>
<path d="M718.259 737.5H674.399V728.66L688.679 725.43V628.36L674.399 624.96V616.12H718.259V624.96L703.979 628.36V725.43L718.259 728.66V737.5Z" fill="white"/>
<path d="M793.716 627.85C780.683 627.85 770.426 632.213 762.946 640.94C755.466 649.666 751.726 661.623 751.726 676.81C751.726 691.883 755.183 703.84 762.096 712.68C769.123 721.406 779.606 725.77 793.546 725.77C798.873 725.77 803.916 725.316 808.676 724.41C813.436 723.503 818.083 722.37 822.616 721.01V734.27C818.083 735.97 813.379 737.216 808.506 738.01C803.746 738.803 798.023 739.2 791.336 739.2C778.983 739.2 768.669 736.65 760.396 731.55C752.123 726.45 745.889 719.196 741.696 709.79C737.616 700.383 735.576 689.333 735.576 676.64C735.576 664.4 737.786 653.633 742.206 644.34C746.739 634.933 753.369 627.623 762.096 622.41C770.823 617.083 781.419 614.42 793.886 614.42C806.693 614.42 817.856 616.8 827.376 621.56L821.256 634.48C817.516 632.78 813.323 631.25 808.676 629.89C804.143 628.53 799.156 627.85 793.716 627.85Z" fill="white"/>
</g>
<path d="M543.716 462.817C543.716 466.037 541.806 467.646 537.988 467.646H511.035C508.19 467.646 505.045 466.636 501.601 464.614C498.232 462.518 495.649 460.01 493.852 457.09L474.76 427.217C466.899 414.938 457.391 408.799 446.235 408.799H418.833V457.09C418.833 460.01 417.785 462.518 415.688 464.614C413.667 466.636 411.196 467.646 408.276 467.646H387.163C384.243 467.646 381.735 466.636 379.638 464.614C377.542 462.518 376.494 460.01 376.494 457.09V317.271C376.494 314.351 377.505 311.842 379.526 309.746C381.548 307.65 384.018 306.602 386.938 306.602H479.59C496.735 306.602 510.773 311.206 521.704 320.415C532.71 329.624 538.213 342.052 538.213 357.7C538.213 379.487 524.1 393.151 495.874 398.691C500.366 400.339 504.521 403.184 508.34 407.227C512.158 411.195 516.538 416.997 521.479 424.634L541.919 457.09C543.117 459.186 543.716 461.095 543.716 462.817ZM418.833 377.017H466.675C474.386 377.017 481.162 375.482 487.002 372.412C492.916 369.342 495.874 364.438 495.874 357.7C495.874 350.962 492.916 346.058 487.002 342.988C481.162 339.919 474.386 338.384 466.675 338.384H418.833V377.017Z" fill="#2D2D2D"/>
<path d="M547.534 327.827V317.271C547.534 314.201 548.545 311.655 550.566 309.634C552.588 307.612 555.133 306.602 558.203 306.602H700.718C703.787 306.602 706.333 307.612 708.354 309.634C710.376 311.655 711.386 314.201 711.386 317.271V327.827C711.386 330.897 710.376 333.442 708.354 335.464C706.333 337.41 703.787 338.384 700.718 338.384H650.63V457.314C650.63 460.234 649.581 462.705 647.485 464.727C645.464 466.673 642.993 467.646 640.073 467.646H618.847C615.927 467.646 613.419 466.673 611.323 464.727C609.302 462.705 608.291 460.234 608.291 457.314V338.384H558.203C555.133 338.384 552.588 337.41 550.566 335.464C548.545 333.442 547.534 330.897 547.534 327.827Z" fill="#2D2D2D"/>
<path fill-rule="evenodd" clip-rule="evenodd" d="M156.922 458C138.502 458 121.506 452.001 123.86 444.5C126.598 435.775 127.187 430.476 127.594 426.804C128.238 421.008 128.431 419.267 135.921 414.5C139.177 412.873 145.402 413.365 152.248 413.906C155.915 414.196 171.31 417.001 174.973 417.001C183.877 417.001 195.752 382.946 206.973 358.501C220.973 328.001 223.06 323.325 230.473 308.501C239.473 290.501 237.473 294.282 241.473 287.001C257.419 257.971 268.854 246.001 278.422 246.001C300.04 245.918 324.584 495.504 319.5 495H1006.28L987 526C987 526 295.922 526.5 278.422 526C270.805 525.783 273.586 521.291 276 507.5C279.5 487.5 282.379 457.233 265.738 456C238.738 454.001 221.422 453.001 221.422 453.001C218.603 452.688 218.584 452.767 214.628 468.97C212.269 478.634 208.51 494.031 201.922 518.501C197.1 536.408 184.5 568.5 184.5 568.5C176.667 588.681 170.675 599.323 156.922 617C156.922 617 131.852 650 123.86 620C115.42 588.322 97.6784 569.873 97.5 561.5L156.922 458ZM265.738 334.5C258.975 319 230.473 420.5 230.473 420.5C230.473 420.5 276 440.5 276 420.5C276 414.325 272.5 350 265.738 334.5Z" fill="url(#paint0_linear)"/>
<defs>
<filter id="filter0_d" x="312.214" y="614.42" width="532.162" height="141.78" filterUnits="userSpaceOnUse" color-interpolation-filters="sRGB">
<feFlood flood-opacity="0" result="BackgroundImageFix"/>
<feColorMatrix in="SourceAlpha" type="matrix" values="0 0 0 0 0 0 0 0 0 0 0 0 0 0 0 0 0 0 127 0" result="hardAlpha"/>
<feOffset dx="13" dy="13"/>
<feGaussianBlur stdDeviation="2"/>
<feComposite in2="hardAlpha" operator="out"/>
<feColorMatrix type="matrix" values="0 0 0 0 0 0 0 0 0 0 0 0 0 0 0 0 0 0 0.25 0"/>
<feBlend mode="normal" in2="BackgroundImageFix" result="effect1_dropShadow"/>
<feBlend mode="normal" in="SourceGraphic" in2="effect1_dropShadow" result="shape"/>
</filter>
<linearGradient id="paint0_linear" x1="1037.5" y1="502" x2="-20.0001" y2="502" gradientUnits="userSpaceOnUse">
<stop stop-color="#470000"/>
<stop offset="0.280399" stop-color="#B70000"/>
<stop offset="1" stop-color="#FF0000"/>
</linearGradient>
</defs>
</svg>
