<svg width="1024" height="1024" viewBox="0 0 1024 1024" fill="none" xmlns="http://www.w3.org/2000/svg">
<path fill-rule="evenodd" clip-rule="evenodd" d="M30.7353 496.5C30.5694 501.646 30.4858 506.813 30.4858 512C30.4858 772.955 242.031 984.5 502.986 984.5C763.941 984.5 975.486 772.955 975.486 512C975.486 506.813 975.402 501.646 975.237 496.5H30.7353Z" fill="#3F3F3F"/>
<path fill-rule="evenodd" clip-rule="evenodd" d="M30.4858 512C30.4858 251.046 242.032 39.5 502.986 39.5C763.94 39.5 975.486 251.046 975.486 512C975.486 772.955 763.941 984.5 502.986 984.5C242.031 984.5 30.4858 772.955 30.4858 512ZM502.986 54.5C250.316 54.5 45.4858 259.33 45.4858 512C45.4858 764.67 250.316 969.5 502.986 969.5C755.656 969.5 960.486 764.67 960.486 512C960.486 259.33 755.656 54.5 502.986 54.5Z" fill="#3F3F3F"/>
<g filter="url(#filter0_d)">
<path d="M378.526 737.5L338.576 631.08H337.896C338.236 634.593 338.519 639.353 338.746 645.36C338.972 651.253 339.086 657.43 339.086 663.89V737.5H324.976V616.12H347.586L384.986 715.57H385.666L423.746 616.12H446.186V737.5H431.056V662.87C431.056 656.976 431.169 651.14 431.396 645.36C431.736 639.58 432.019 634.876 432.246 631.25H431.566L391.106 737.5H378.526Z" fill="white"/>
<path d="M571.514 694.66C571.514 703.046 569.814 710.64 566.414 717.44C563.014 724.126 557.801 729.453 550.774 733.42C543.861 737.273 535.021 739.2 524.254 739.2C509.181 739.2 497.677 735.12 489.744 726.96C481.924 718.686 478.014 707.806 478.014 694.32V616.12H493.314V694.83C493.314 704.69 495.921 712.34 501.134 717.78C506.461 723.22 514.451 725.94 525.104 725.94C536.097 725.94 544.031 723.05 548.904 717.27C553.891 711.376 556.384 703.84 556.384 694.66V616.12H571.514V694.66Z" fill="white"/>
<path d="M672.4 705.03C672.4 715.796 668.49 724.183 660.67 730.19C652.85 736.196 642.31 739.2 629.05 739.2C622.25 739.2 615.96 738.69 610.18 737.67C604.4 736.65 599.583 735.233 595.73 733.42V718.8C599.81 720.613 604.853 722.256 610.86 723.73C616.98 725.203 623.27 725.94 629.73 725.94C638.796 725.94 645.596 724.183 650.13 720.67C654.776 717.156 657.1 712.396 657.1 706.39C657.1 702.423 656.25 699.08 654.55 696.36C652.85 693.64 649.903 691.146 645.71 688.88C641.63 686.5 635.906 684.006 628.54 681.4C618.226 677.66 610.406 673.07 605.08 667.63C599.866 662.19 597.26 654.766 597.26 645.36C597.26 638.9 598.903 633.403 602.19 628.87C605.476 624.223 610.01 620.653 615.79 618.16C621.683 615.666 628.426 614.42 636.02 614.42C642.706 614.42 648.826 615.043 654.38 616.29C659.933 617.536 664.976 619.18 669.51 621.22L664.75 634.31C660.556 632.496 655.966 630.966 650.98 629.72C646.106 628.473 641.006 627.85 635.68 627.85C628.086 627.85 622.363 629.493 618.51 632.78C614.656 635.953 612.73 640.203 612.73 645.53C612.73 649.61 613.58 653.01 615.28 655.73C616.98 658.45 619.756 660.886 623.61 663.04C627.463 665.193 632.676 667.516 639.25 670.01C646.39 672.616 652.396 675.45 657.27 678.51C662.256 681.456 665.996 685.026 668.49 689.22C671.096 693.413 672.4 698.683 672.4 705.03Z" fill="white"/>
<path d="M731.021 737.5H687.161V728.66L701.441 725.43V628.36L687.161 624.96V616.12H731.021V624.96L716.741 628.36V725.43L731.021 728.66V737.5Z" fill="white"/>
<path d="M806.478 627.85C793.445 627.85 783.188 632.213 775.708 640.94C768.228 649.666 764.488 661.623 764.488 676.81C764.488 691.883 767.945 703.84 774.858 712.68C781.885 721.406 792.368 725.77 806.308 725.77C811.635 725.77 816.678 725.316 821.438 724.41C826.198 723.503 830.845 722.37 835.378 721.01V734.27C830.845 735.97 826.141 737.216 821.268 738.01C816.508 738.803 810.785 739.2 804.098 739.2C791.745 739.2 781.431 736.65 773.158 731.55C764.885 726.45 758.651 719.196 754.458 709.79C750.378 700.383 748.338 689.333 748.338 676.64C748.338 664.4 750.548 653.633 754.968 644.34C759.501 634.933 766.131 627.623 774.858 622.41C783.585 617.083 794.181 614.42 806.648 614.42C819.455 614.42 830.618 616.8 840.138 621.56L834.018 634.48C830.278 632.78 826.085 631.25 821.438 629.89C816.905 628.53 811.918 627.85 806.478 627.85Z" fill="white"/>
</g>
<path d="M556.478 462.817C556.478 466.037 554.568 467.646 550.75 467.646H523.797C520.952 467.646 517.807 466.636 514.363 464.614C510.994 462.518 508.411 460.01 506.614 457.09L487.522 427.217C479.661 414.938 470.153 408.799 458.997 408.799H431.595V457.09C431.595 460.01 430.547 462.518 428.45 464.614C426.429 466.636 423.958 467.646 421.038 467.646H399.925C397.005 467.646 394.497 466.636 392.4 464.614C390.304 462.518 389.256 460.01 389.256 457.09V317.271C389.256 314.351 390.267 311.842 392.288 309.746C394.31 307.65 396.78 306.602 399.7 306.602H492.352C509.497 306.602 523.535 311.206 534.466 320.415C545.472 329.624 550.975 342.052 550.975 357.7C550.975 379.487 536.862 393.151 508.636 398.691C513.128 400.339 517.283 403.184 521.102 407.227C524.92 411.195 529.3 416.997 534.241 424.634L554.681 457.09C555.879 459.186 556.478 461.095 556.478 462.817ZM431.595 377.017H479.437C487.148 377.017 493.924 375.482 499.764 372.412C505.678 369.342 508.636 364.438 508.636 357.7C508.636 350.962 505.678 346.058 499.764 342.988C493.924 339.919 487.148 338.384 479.437 338.384H431.595V377.017Z" fill="#2D2D2D"/>
<path d="M560.296 327.827V317.271C560.296 314.201 561.307 311.655 563.328 309.634C565.35 307.612 567.895 306.602 570.965 306.602H713.479C716.549 306.602 719.095 307.612 721.116 309.634C723.138 311.655 724.148 314.201 724.148 317.271V327.827C724.148 330.897 723.138 333.442 721.116 335.464C719.095 337.41 716.549 338.384 713.479 338.384H663.392V457.314C663.392 460.234 662.343 462.705 660.247 464.727C658.226 466.673 655.755 467.646 652.835 467.646H631.609C628.689 467.646 626.181 466.673 624.085 464.727C622.063 462.705 621.053 460.234 621.053 457.314V338.384H570.965C567.895 338.384 565.35 337.41 563.328 335.464C561.307 333.442 560.296 330.897 560.296 327.827Z" fill="#2D2D2D"/>
<path fill-rule="evenodd" clip-rule="evenodd" d="M169.684 458C151.264 458 134.268 452.001 136.622 444.5C139.361 435.775 139.949 430.476 140.357 426.804C141 421.008 141.194 419.267 148.684 414.5C151.94 412.873 158.164 413.365 165.01 413.906C168.677 414.196 184.073 417 187.735 417C196.64 417 208.514 382.946 219.735 358.5C233.735 328 235.823 323.325 243.235 308.5C252.235 290.5 250.235 294.282 254.235 287C270.181 257.971 281.616 246.001 291.184 246C310.964 246 310.584 272.9 330.184 486.501V495H993.514L981 526C981 526 308.684 526.5 291.184 526C283.567 525.783 290.137 507.461 291.184 493.5C292.684 473.5 295.141 457.233 278.5 456C251.5 454.001 234.184 453.001 234.184 453.001C231.365 452.688 231.346 452.767 227.39 468.97C225.031 478.634 221.272 494.031 214.684 518.501C209.863 536.408 205.505 553.679 201.514 569.496C189.682 616.391 181.075 650.5 173.184 650.5C163.184 650.5 103.313 635.7 111.184 620.5L169.684 458ZM275 321.5C255 368.5 240 422.5 240 422.5C240 422.5 293.618 436 289 417C287.542 411 283 363.5 275 321.5Z" fill="url(#paint0_linear)"/>
<defs>
<filter id="filter0_d" x="324.976" y="614.42" width="532.162" height="141.78" filterUnits="userSpaceOnUse" color-interpolation-filters="sRGB">
<feFlood flood-opacity="0" result="BackgroundImageFix"/>
<feColorMatrix in="SourceAlpha" type="matrix" values="0 0 0 0 0 0 0 0 0 0 0 0 0 0 0 0 0 0 127 0" result="hardAlpha"/>
<feOffset dx="13" dy="13"/>
<feGaussianBlur stdDeviation="2"/>
<feComposite in2="hardAlpha" operator="out"/>
<feColorMatrix type="matrix" values="0 0 0 0 0 0 0 0 0 0 0 0 0 0 0 0 0 0 0.25 0"/>
<feBlend mode="normal" in2="BackgroundImageFix" result="effect1_dropShadow"/>
<feBlend mode="normal" in="SourceGraphic" in2="effect1_dropShadow" result="shape"/>
</filter>
<linearGradient id="paint0_linear" x1="1004.14" y1="502" x2="133.136" y2="502" gradientUnits="userSpaceOnUse">
<stop stop-color="#920404"/>
<stop offset="0.461458" stop-color="#FF0000"/>
<stop offset="0.9999" stop-color="#FF0700"/>
</linearGradient>
</defs>
</svg>
